<?xml version="1.0" encoding="utf-8"?>
<svg width="572px" height="392px" viewBox="0 0 572 392" version="1.1" 
    xmlns:xlink="http://www.w3.org/1999/xlink" 
    xmlns="http://www.w3.org/2000/svg">
    <desc>Created with Lunacy</desc>
    <g id="ILLUSTRATION">
        <path d="M183.392 213.022L2.14519 107.418C-0.715062 105.751 -0.715062 101.586 2.14519 99.9201L173.659 0L365.255 111.634C368.115 113.3 368.115 117.466 365.255 119.132L204.092 213.022C197.688 216.754 189.796 216.752 183.392 213.022Z" transform="translate(151.8 134.3371)" id="Path" fill="#173D7A" fill-opacity="0.5" stroke="none" />
        <g id="Group" transform="translate(134.2 57.25843)">
            <g id="Group">
                <path d="M195.244 13.0943C195.254 1.418 187.036 -3.33926 176.924 2.48979L5.03983 101.575C2.25959 103.176 0.00260547 107.079 2.25485e-06 110.289C-0.00260096 113.5 2.24918 114.803 5.02941 113.2L176.913 14.1166C181.474 11.4873 185.18 13.6322 185.176 18.8986L185.159 38.1309C188.494 37.9225 191.841 37.9199 195.223 37.9785L195.244 13.0943Z" transform="translate(0.2486048 1.259506)" id="Path" fill="#D4ECFF" stroke="none" />
                <path d="M5.02941 109.838L176.913 47.1706C187.025 41.3415 195.261 27.0997 195.271 15.4233L195.285 0.0328673C191.905 -0.0257358 188.557 -0.0231312 185.221 0.185235L185.203 21.2276C185.198 26.4941 181.484 32.9157 176.924 35.545L5.03983 98.2125C2.25959 99.8144 0.00390708 103.717 2.25485e-06 106.927C-0.00260096 110.136 2.24918 111.44 5.02941 109.838Z" transform="translate(0.184826 39.20514)" id="Path" fill="#5793CE" stroke="none" />
            </g>
            <path d="M0 17.5731L209.09 138.625L386.115 32.9961L400.161 12.024L398.703 19.4549L394.929 0L66.3221 12.5411L8.42661 8.80999L0 17.5731Z" transform="translate(1.486436 131.7006)" id="Path" fill="#5793CE" stroke="none" />
            <path d="M0.0559691 0L0 25.7515L202.084 142.727L207.544 118.184L0.0559691 0Z" transform="translate(8.364131 112.7432)" id="Path" fill="#86B8E0" stroke="none" />
            <path d="M397.363 120.84L188.606 0L0.389181 109.512L0 112.201L209.066 233.218L397.363 120.84Z" transform="translate(1.679074 2.582442)" id="Path" fill="#D4ECFF" stroke="none" />
            <path d="M122.116 52.4029L171.199 23.2719C175.334 20.3639 178.577 14.488 178.581 9.57574L178.617 5.71836C178.62 2.59807 177.314 0.586031 175.306 0L78.6835 53.7807L0 96.3591L0.0715884 122.397L122.116 52.4029Z" transform="translate(210.375 133.0732)" id="Path" fill="#FFFFFF" stroke="none" />
            <path d="M217.184 124.942L9.75035 4.86926L5.35352 2.32459L1.33675 0C0.515439 1.50805 0.00130393 3.16847 2.31913e-06 4.68043C-0.00129929 6.25881 0.545376 7.36836 1.43047 7.9062L1.43177 7.91532L1.46431 7.93486L1.47993 7.94397L210.496 128.933L217.184 124.942Z" transform="translate(0.2473031 106.8686)" id="Path" fill="#5793CE" stroke="none" />
            <path d="M0 0.600356L2.60712 2.10971L3.08742 1.27755L1.46431 0L0 0.600356Z" transform="translate(207.9696 268.2158)" id="Path" fill="#FFFFFF" stroke="none" />
            <path d="M0 0L2.6709 1.54712L2.00187 0.0872534L0 0Z" transform="translate(208.0373 234.2287)" id="Path" fill="#FFFFFF" stroke="none" />
            <path d="M5.10361 101.573L176.987 2.48979C187.1 -3.33926 195.318 1.418 195.308 13.0943L195.271 16.9517C195.261 28.6281 187.025 42.8699 176.913 48.699L5.02941 147.782C2.24918 149.384 -0.00260096 148.081 2.25485e-06 144.872C0.00260547 141.662 2.25959 137.76 5.03983 136.157L176.924 37.0734C181.484 34.4441 185.198 28.0225 185.203 22.756L185.24 18.8986C185.245 13.6322 181.539 11.4873 176.977 14.1166L5.09319 113.2C2.31296 114.802 0.0611778 113.498 0.063781 110.289C0.0663842 107.078 2.32337 103.176 5.10361 101.573Z" transform="translate(209.2478 122.2761)" id="Path" fill="#D4ECFF" stroke="none" />
            <path d="M0 51.4887L89.3189 0L166.783 44.8392L77.4639 96.3278L0 51.4887Z" transform="translate(137.7986 76.29729)" id="Path" fill="#FFFFFF" stroke="none" />
            <g id="Group" transform="translate(205.654 119.8107)">
                <path d="M2.7542 131.827C2.75681 128.617 5.01379 124.715 7.79403 123.112L179.678 24.0286C184.239 21.3992 187.952 14.9776 187.957 9.71118L187.994 5.8538C187.996 2.40533 186.403 0.308643 184.028 0C184.793 1.00537 185.242 2.44179 185.24 4.25979L185.203 8.11848C185.198 13.3849 181.484 19.8065 176.924 22.4359L5.03983 121.519C2.25959 123.121 0.0026042 127.024 9.81207e-07 130.234C-0.00130063 132.667 1.2925 133.997 3.12907 133.805C2.89087 133.263 2.7542 132.604 2.7542 131.827Z" transform="translate(0.839536 15.51028)" id="Path" fill="#FFFFFF" stroke="none" />
                <path d="M2.75421 111.879C2.75681 108.67 5.0138 104.767 7.79403 103.164L179.678 4.07959C184.033 1.56877 188.032 1.03223 191.178 2.1561C187.817 -0.71154 182.681 -0.833955 176.924 2.48558L5.03983 101.569C2.25959 103.171 0.00390874 107.074 3.91734e-06 110.284C-0.0025993 112.717 1.2925 114.046 3.12907 113.855C2.88957 113.317 2.75421 112.657 2.75421 111.879Z" transform="translate(0.9033118 0.8743263)" id="Path" fill="#FFFFFF" stroke="none" />
            </g>
        </g>
        <g id="Group" transform="translate(0 134.3371)">
            <path d="M49.1098 61.6257L1.95385 34.401C-0.940195 32.7302 -0.577457 29.8114 2.76445 27.8826L48.2979 1.59553C51.6398 -0.333283 56.6946 -0.542794 59.5886 1.12806L106.745 28.3514C109.639 30.0223 109.276 32.941 105.934 34.8698L60.4005 61.1569C57.0599 63.087 52.0039 63.2965 49.1098 61.6257Z" transform="translate(1.271504 33.46091)" id="Path" fill="#173D7A" fill-opacity="0.5" stroke="none" />
            <path d="M108.677 24.6994L108.677 24.6994L108.677 8.42952L72.192 8.40857L59.5813 1.12806C56.6873 -0.542794 51.6325 -0.333283 48.2906 1.59553L36.5245 8.38762L0.0071437 8.36797L0.0071437 25.1001C-0.0753563 26.2314 0.555834 27.3222 1.94655 28.1249L49.1025 55.3495C51.9965 57.0204 57.0526 56.8109 60.3932 54.8821L105.927 28.595C107.856 27.4832 108.785 26.0415 108.677 24.6994Z" transform="translate(1.278809 23.95042)" id="Path" fill="#396CAA" stroke="none" />
            <path d="M54.3432 0C52.2257 0.0510683 50.027 0.585322 48.2906 1.58705L36.5245 8.37913L0.0071437 8.35949L0.0071437 25.0916C-0.0753563 26.2229 0.555834 27.3137 1.94655 28.1164L49.1025 55.341C50.4932 56.1437 52.3842 56.5078 54.3432 56.4606L54.3432 0Z" transform="translate(1.278809 23.96021)" id="Path" fill="#396CAA" stroke="none" />
            <path d="M4.14 0.00261889L0.0071437 0L0.0071437 16.7321C-0.0753563 17.8634 0.555834 18.9542 1.94655 19.7569L4.14 21.0231L4.14 0.00261889Z" transform="translate(1.278809 32.3197)" id="Path" fill="#5793CE" stroke="none" />
            <path d="M0 19.1022C2.49595 20.172 6.10631 20.1117 9.02655 18.9987L9.02655 0L0 0L0 19.1022Z" transform="translate(51.1081 60.55525)" id="Path" fill="#5793CE" stroke="none" />
            <path d="M49.1098 61.6244L1.95385 34.401C-0.940195 32.7302 -0.577457 29.8114 2.76445 27.8826L48.2979 1.59553C51.6398 -0.333283 56.6946 -0.542794 59.5886 1.12806L106.745 28.3527C109.639 30.0236 109.276 32.9423 105.934 34.8711L60.4005 61.1582C57.0599 63.0857 52.0039 63.2952 49.1098 61.6244Z" transform="translate(1.271504 1.005028)" id="Path" fill="#D4ECFF" stroke="none" />
            <path d="M105.934 2.03619L60.4003 28.3233C57.0584 30.2521 52.0036 30.4616 49.1096 28.7908L1.95364 1.5661C1.30804 1.1929 0.833996 0.756859 0.509234 0.284149C-0.484695 1.88429 -0.0342187 3.6193 1.95364 4.76769L49.1096 31.9923C52.0036 33.6632 57.0597 33.4537 60.4003 31.5249L105.934 5.23778C108.531 3.73846 109.319 1.64466 108.189 0C107.734 0.72936 106.98 1.43122 105.934 2.03619Z" transform="translate(1.273028 30.63707)" id="Path" fill="#FFFFFF" stroke="none" />
            <g id="Group" transform="translate(87.7381 43.21166)">
                <path d="M3.80809 1.35941C3.80809 2.57326 2.9556 4.05031 1.90405 4.6579C0.8525 5.26548 0 4.77313 0 3.55796C0 2.34411 0.8525 0.867055 1.90405 0.259472C2.9556 -0.3468 3.80809 0.145551 3.80809 1.35941Z" transform="translate(1.064643 8.372384)" id="Path" fill="#D4ECFF" stroke="none" />
                <path d="M3.80809 1.36022C3.80809 2.57407 2.9556 4.05112 1.90405 4.65871C0.8525 5.26629 0 4.77394 0 3.55877C0 2.34492 0.8525 0.867864 1.90405 0.260282C2.9556 -0.3473 3.80809 0.145051 3.80809 1.36022Z" transform="translate(7.193214 4.834765)" id="Path" fill="#D4ECFF" stroke="none" />
                <path d="M3.80809 1.36022C3.80809 2.57538 2.9556 4.05112 1.90405 4.65871C0.8525 5.26629 0 4.77394 0 3.55877C0 2.34492 0.8525 0.867864 1.90405 0.260282C2.95429 -0.3473 3.80809 0.145051 3.80809 1.36022Z" transform="translate(13.32179 1.296647)" id="Path" fill="#D4ECFF" stroke="none" />
            </g>
            <g id="Group" transform="translate(30.11905 15.71333)">
                <path d="M22.9807 28.8379L0.913933 16.0983C-0.440115 15.3166 -0.269877 13.9508 1.29369 13.0473L22.601 0.746401C24.1645 -0.155806 26.5308 -0.254015 27.8849 0.527723L49.9517 13.2673C51.3057 14.049 51.1368 15.4148 49.5719 16.3183L28.2646 28.6192C26.6998 29.5227 24.3348 29.6196 22.9807 28.8379Z" transform="translate(0.07082934 1.199434)" id="Path" fill="#5793CE" stroke="none" />
                <path d="M3.1789 3.98969L0.126399 2.22718C-0.0608634 2.11849 -0.037292 1.92993 0.178779 1.80554L3.12652 0.10326C3.34259 -0.0211374 3.66997 -0.0355413 3.85723 0.0731426L6.90973 1.83565C7.09699 1.94434 7.07342 2.1329 6.85735 2.2573L3.90961 3.95957C3.69354 4.08397 3.36616 4.09838 3.1789 3.98969Z" transform="translate(21.98491 15.38092)" id="Path" fill="#D4ECFF" stroke="none" />
                <path d="M0.914906 16.0983L0.977763 16.1337C1.07991 16.0604 1.1755 15.9844 1.29467 15.9163L22.6019 3.61539C24.1655 2.71188 26.5318 2.61498 27.8859 3.39672L49.8898 16.0996C51.1378 15.2066 51.2032 13.9901 49.9526 13.2673L27.8859 0.527723C26.5318 -0.254015 24.1655 -0.155806 22.6019 0.746401L1.29467 13.0473C-0.270213 13.9508 -0.440451 15.3166 0.914906 16.0983Z" transform="translate(0.06985588 1.199434)" id="Path" fill="#396CAA" stroke="none" />
            </g>
        </g>
        <g id="Group" transform="translate(413.6 292.8989)">
            <path d="M49.1098 61.6244L1.95385 34.401C-0.940195 32.7302 -0.577457 29.8114 2.76445 27.8826L48.2979 1.59553C51.6398 -0.333283 56.6946 -0.542794 59.5886 1.12806L106.745 28.3514C109.639 30.0223 109.276 32.941 105.934 34.8698L60.4005 61.1569C57.0586 63.0857 52.0039 63.2952 49.1098 61.6244Z" transform="translate(0.9270995 33.22652)" id="Path" fill="#173D7A" fill-opacity="0.5" stroke="none" />
            <path d="M108.677 24.6992L108.677 24.6992L108.677 8.4294L72.192 8.40845L59.5813 1.12794C56.6873 -0.542916 51.6325 -0.333405 48.2906 1.59672L36.5245 8.3888L0.0071437 8.36785L0.0071437 25.1012C-0.0753563 26.2326 0.555834 27.3234 1.94655 28.1261L49.1025 55.3507C51.9965 57.0216 57.0526 56.8121 60.3945 54.8832L105.928 28.5962C107.854 27.4818 108.784 26.0401 108.677 24.6992Z" transform="translate(0.9344039 23.71615)" id="Path" fill="#396CAA" stroke="none" />
            <path d="M54.3432 0C52.2257 0.0510683 50.027 0.585322 48.2906 1.58705L36.5245 8.37913L0.0071437 8.35818L0.0071437 25.0916C-0.0753563 26.2229 0.555834 27.3137 1.94655 28.1164L49.1025 55.341C50.4932 56.1437 52.3842 56.5078 54.3432 56.4606L54.3432 0L54.3432 0Z" transform="translate(0.9330944 23.72451)" id="Path" fill="#396CAA" stroke="none" />
            <path d="M4.14 0.00261889L0.0071437 0L0.0071437 16.7334C-0.0753563 17.8647 0.555834 18.9555 1.94655 19.7582L4.14 21.0244L4.14 0.00261889Z" transform="translate(0.9344039 32.084)" id="Path" fill="#5793CE" stroke="none" />
            <path d="M0 19.1022C2.49595 20.172 6.10762 20.1117 9.02655 18.9987L9.02655 0L0 0L0 19.1022Z" transform="translate(50.76238 60.31955)" id="Path" fill="#5793CE" stroke="none" />
            <path d="M49.1098 61.6257L1.95385 34.401C-0.940195 32.7302 -0.577457 29.8114 2.76445 27.8826L48.2979 1.59553C51.6398 -0.333283 56.6946 -0.542794 59.5886 1.12806L106.745 28.3514C109.639 30.0223 109.276 32.941 105.934 34.8698L60.4005 61.1569C57.0586 63.087 52.0039 63.2965 49.1098 61.6257Z" transform="translate(0.9270995 0.7680182)" id="Path" fill="#D4ECFF" stroke="none" />
            <path d="M105.934 2.03619L60.4003 28.3233C57.0584 30.2521 52.0036 30.4629 49.1096 28.7908L1.95364 1.5661C1.30804 1.19421 0.833996 0.756859 0.509234 0.285459C-0.484695 1.8856 -0.0342187 3.62061 1.95364 4.769L49.1096 31.9937C52.0036 33.6645 57.0597 33.455 60.4003 31.5249L105.934 5.23778C108.531 3.73846 109.319 1.64466 108.189 0C107.734 0.72936 106.981 1.43122 105.934 2.03619Z" transform="translate(0.9273139 30.40137)" id="Path" fill="#FFFFFF" stroke="none" />
            <g id="Group" transform="translate(87.7381 43.21166)">
                <path d="M3.80809 1.35941C3.80809 2.57457 2.9556 4.05031 1.90405 4.6579C0.8525 5.26548 0 4.77313 0 3.55796C0 2.34411 0.8525 0.867055 1.90405 0.259473C2.95429 -0.3468 3.80809 0.145551 3.80809 1.35941Z" transform="translate(0.7202381 8.136684)" id="Path" fill="#D4ECFF" stroke="none" />
                <path d="M3.81071 1.36022C3.81071 2.57538 2.95821 4.05112 1.90536 4.65871C0.85381 5.26629 0 4.77394 0 3.55877C0 2.34361 0.8525 0.867864 1.90536 0.260282C2.95821 -0.3473 3.81071 0.145051 3.81071 1.36022Z" transform="translate(6.844881 4.599065)" id="Path" fill="#D4ECFF" stroke="none" />
                <path d="M3.8094 1.36022C3.8094 2.57407 2.9569 4.05112 1.90536 4.65871C0.853809 5.26629 0 4.77394 0 3.55877C0 2.34361 0.8525 0.867864 1.90536 0.260282C2.9569 -0.3473 3.8094 0.145051 3.8094 1.36022Z" transform="translate(12.97476 1.060947)" id="Path" fill="#D4ECFF" stroke="none" />
            </g>
            <g id="Group" transform="translate(28.80952 15.71333)">
                <path d="M22.9812 28.837L0.914374 16.0975C-0.439674 15.3157 -0.270745 13.95 1.29414 13.0478L22.6014 0.746842C24.165 -0.156675 26.5313 -0.253574 27.8853 0.528165L49.9521 13.2677C51.3062 14.0495 51.1372 15.4152 49.5723 16.3174L28.2651 28.6184C26.7015 29.5206 24.3352 29.6188 22.9812 28.837Z" transform="translate(1.034198 0.9646018)" id="Path" fill="#5793CE" stroke="none" />
                <path d="M3.1789 3.98969L0.126399 2.22718C-0.0608634 2.11849 -0.037292 1.92993 0.178779 1.80554L3.12652 0.10326C3.34259 -0.0211374 3.66997 -0.0355412 3.85723 0.0731426L6.90973 1.83565C7.09699 1.94434 7.07342 2.1329 6.85735 2.2573L3.90961 3.95957C3.69354 4.08528 3.36616 4.09837 3.1789 3.98969Z" transform="translate(22.94872 15.14522)" id="Path" fill="#D4ECFF" stroke="none" />
                <path d="M0.914374 16.0996L0.977231 16.135C1.07937 16.0617 1.17497 15.9857 1.29414 15.9163L22.6014 3.61539C24.165 2.71188 26.5313 2.61498 27.8853 3.39672L49.8893 16.0996C51.1372 15.2066 51.2027 13.9901 49.9521 13.2673L27.8853 0.527723C26.5313 -0.254015 24.165 -0.155806 22.6014 0.746401L1.29414 13.0473C-0.270745 13.9521 -0.439674 15.3179 0.914374 16.0996Z" transform="translate(1.034198 0.9624241)" id="Path" fill="#396CAA" stroke="none" />
            </g>
        </g>
        <path d="M2.70664 1.56105C6.3142 -0.52035 12.1635 -0.52035 15.7723 1.56105L184.294 98.8116C187.902 100.893 187.902 104.268 184.294 106.349C180.687 108.43 174.836 108.43 171.229 106.349L2.70664 9.09849C-0.902214 7.01709 -0.902214 3.64245 2.70664 1.56105Z" transform="translate(88 277.4832)" id="Path" fill="#173D7A" fill-opacity="0.5" stroke="none" />
        <g id="Group" transform="translate(72.6 240.0449)">
            <path d="M0.0911508 0.32908L0.0911508 0.32908C0.236685 0.0812742 0.523856 -0.0452374 0.80453 0.0147578L9.981 2.01155L6.36733 8.18193L0.165217 1.10641C-0.0244971 0.891209 -0.0530843 0.576887 0.0911508 0.32908Z" transform="translate(1.15239 0.5095481)" id="Path" fill="#D4ECFF" stroke="none" />
            <g id="Group" transform="translate(3.898246 1.304243)">
                <path d="M9.76243e-05 3.86252C0.0104929 2.5335 0.952569 0.925367 2.10385 0.270636C2.63661 -0.0319481 3.1148 -0.0684669 3.47993 0.0997805C14.0832 0.0137004 24.5123 2.81522 33.6537 8.20826L34.3164 8.59954L22.9192 28.0615L19.5537 25.8221C12.4303 21.0811 6.427 14.8338 1.96351 7.51701L0.522463 5.15503C0.197609 4.91505 -0.00510004 4.47682 9.76243e-05 3.86252Z" transform="translate(0.9640685 0.2236719)" id="Path" fill="#FF2C9C" stroke="none" />
                <path d="M11.266 12.9992C17.4939 12.9891 22.5473 10.071 22.5531 6.48135C22.5589 2.89173 17.515 -0.0100559 11.2871 2.61931e-05C5.05923 0.0101083 0.00582667 2.92824 5.03434e-06 6.51786C-0.0058166 10.1075 5.03815 13.0093 11.266 12.9992Z" transform="matrix(0.5067842 -0.8620729 0.8620729 0.5067842 18.28093 24.99069)" id="Oval" fill="#D4ECFF" stroke="none" />
                <path d="M67.6437 61.7598L0 19.4619L11.3985 0L81.1108 38.7634L67.6437 61.7598Z" transform="translate(23.88325 8.821903)" id="Path" fill="#D4ECFF" stroke="none" />
                <path d="M0.000388095 17.5169C0.047167 11.503 4.31055 4.22276 9.5225 1.25561C14.7358 -1.71154 18.9225 0.759998 18.8757 6.77386C18.8289 12.7877 14.5655 20.068 9.35358 23.0352C4.14162 26.0023 -0.0463909 23.5308 0.000388095 17.5169Z" transform="translate(88.82114 46.93749)" id="Path" fill="#D4ECFF" stroke="none" />
            </g>
            <g id="Group" transform="translate(96.15672 49.56125)">
                <path d="M0.000388095 17.5169C0.047167 11.5031 4.31055 4.22276 9.5225 1.25561C14.7358 -1.71154 18.9225 0.759998 18.8757 6.77386C18.8289 12.7877 14.5655 20.068 9.35228 23.0352C4.14162 26.001 -0.0463909 23.5308 0.000388095 17.5169Z" transform="translate(0.4219218 0.957691)" id="Path" fill="#D4ECFF" stroke="none" />
                <path d="M0.168492 0.0431365L26.817 -3.69149e-13L26.6485 103.902L9.50406e-14 103.945L0.168492 0.0431365Z" transform="matrix(0.5067098 -0.8621167 0.8621167 0.5067098 2.988758 24.70815)" id="Rectangle" fill="#D4ECFF" stroke="none" />
                <path d="M0.000388213 17.5169C0.0471672 11.5031 4.31055 4.22276 9.5225 1.25561C14.7358 -1.71154 18.9225 0.759998 18.8757 6.77386C18.8289 12.7877 14.5655 20.068 9.35358 23.0352C4.14033 26.0023 -0.0463907 23.5308 0.000388213 17.5169Z" transform="translate(89.91264 53.75477)" id="Path" fill="#D4ECFF" stroke="none" />
                <path d="M0.0115956 10.7438C0.218203 7.19361 3.09771 2.77222 6.445 0.868027C9.7923 -1.03617 12.3379 0.296768 12.1312 3.84692C11.9246 7.39707 9.04513 11.8185 5.69784 13.7227C2.35184 15.6282 -0.193712 14.2939 0.0115956 10.7438Z" transform="translate(93.27862 58.60548)" id="Path" fill="#396CAA" stroke="none" />
            </g>
            <g id="Group" transform="translate(89.65965 45.64852)">
                <path d="M2.04305 18.7456C2.08983 12.7317 6.35321 5.45143 11.5665 2.48558C13.6663 1.29089 15.5921 0.990912 17.1501 1.43696C15.4582 -0.338112 12.6827 -0.546791 9.52378 1.25046C4.31053 4.21761 0.0471477 11.4979 0.000368789 17.5105C-0.0269189 21.1023 1.46221 23.4174 3.76997 24.0773C2.67067 22.9244 2.02486 21.1154 2.04305 18.7456Z" transform="translate(0.3374792 0.9628443)" id="Path" fill="#FFFFFF" stroke="none" />
                <path d="M0.000387975 17.5163C0.0471669 11.5024 4.31055 4.2221 9.5225 1.25495C12.1291 -0.227978 14.4798 -0.351881 16.1716 0.647169L21.2419 3.6391L18.8263 7.76443C18.3858 13.2344 14.7384 19.4622 10.1917 22.5089L7.77609 26.6355L2.70577 23.6449L2.70577 23.6449C1.01263 22.6432 -0.0230015 20.5225 0.000387975 17.5163Z" transform="translate(2.380141 2.193473)" id="Path" fill="#FF2C9C" stroke="none" />
                <path d="M0.000387976 17.5156C0.0471669 11.5017 4.31055 4.22146 9.5238 1.25561C14.7358 -1.71154 18.9238 0.759998 18.877 6.77386C18.8302 12.7877 14.5668 20.068 9.35488 23.0339C4.14292 25.9997 -0.046391 23.5308 0.000387976 17.5156Z" transform="translate(7.450459 5.184744)" id="Path" fill="#D4ECFF" stroke="none" />
            </g>
            <g id="Group" transform="translate(192.3134 110.8607)">
                <path d="M0.000156279 7.55694C0.0209469 4.9615 1.85962 1.82088 4.10891 0.541414C6.35819 -0.738048 8.16438 0.327519 8.14489 2.92296C8.1241 5.5171 6.28543 8.65903 4.03614 9.93849C1.78685 11.218 -0.0193349 10.1524 0.000156279 7.55694Z" transform="translate(0.179163 0.5189355)" id="Path" fill="#FF2C9C" stroke="none" />
                <path d="M0.000177449 7.55739C0.0209681 4.96194 1.85964 1.82132 4.10893 0.541862C5.23422 -0.0985216 6.24777 -0.151996 6.97804 0.279709L25.9456 11.4701C28.6757 13.0809 29.5879 16.6075 27.9831 19.3464C26.3783 22.0867 22.8647 23.0022 20.1346 21.3915L1.16705 10.2011L1.16705 10.2011C0.436781 9.77069 -0.0102179 8.85511 0.000177449 7.55739Z" transform="translate(0.1791418 0.518488)" id="Path" fill="#FF2C9C" stroke="none" />
            </g>
            <g id="Group" transform="translate(118.2468 54.77822)">
                <path d="M51.6349 28.5787L54.478 26.9588C56.1126 26.0302 58.2736 26.261 60.5631 27.6122L70.3101 33.3626C72.15 34.4478 73.634 37.0732 73.6171 39.2161L73.5794 44.1122C73.5729 44.9326 73.9744 45.8769 74.5604 46.572L74.1953 48.8401L76.6252 47.4432L76.62 47.4406C76.9709 47.262 77.1957 46.8511 77.1996 46.2486L77.2372 41.3524C77.2723 36.8854 74.1784 31.4102 70.3425 29.1473L60.5956 23.3969C57.3393 21.4758 54.2662 21.1458 51.9415 22.4683L49.0984 24.0882C47.465 25.0168 45.3041 24.7859 43.0132 23.4347L3.72282 0.254419C3.21605 -0.0455571 2.75606 -0.0703378 2.42471 0.127907L2.42471 0.123995L0 1.51823L2.07647 2.32034C2.36364 3.19679 2.97436 4.04716 3.69034 4.46973L42.9808 27.6501C46.2371 29.5712 49.3115 29.9012 51.6349 28.5787Z" transform="translate(1.529412 0.5568206)" id="Path" fill="#5793CE" stroke="none" />
                <path d="M52.5822 26.9585C54.2169 26.0299 56.3778 26.2607 58.6661 27.6119L68.413 33.3623C70.253 34.4475 71.7356 37.0729 71.72 39.2158L71.6823 44.1132C71.6732 45.2766 72.4763 46.6995 73.4768 47.2891C74.4761 47.8786 75.2947 47.413 75.3038 46.2496L75.3415 41.3534C75.3765 36.8864 72.2826 31.4112 68.4468 29.1483L58.6999 23.3979C55.4435 21.4768 52.3704 21.1468 50.0458 22.4693L47.2026 24.0892C45.5693 25.0178 43.4083 24.7869 41.1175 23.4357L1.82705 0.255432C0.827804 -0.334086 0.00917242 0.131529 7.65139e-05 1.29491C-0.00901939 2.4583 0.794019 3.88123 1.79457 4.47075L41.085 27.6511C44.3426 29.5722 47.4157 29.9022 49.7391 28.581L52.5822 26.9585Z" transform="translate(0.9640896 1.972216)" id="Path" fill="#5793CE" stroke="none" />
                <path d="M0.729551 1.23642L0.691868 6.13255C0.691868 6.16385 0.706162 6.19907 0.707461 6.23167C0.617801 5.92387 0.568424 5.61607 0.569723 5.32392L0.607406 0.427792C0.608706 0.288238 0.586615 0.142163 0.574921 0C0.668479 0.419966 0.733449 0.837324 0.729551 1.23642Z" transform="translate(72.07668 40.76022)" id="Path" fill="#FFFFFF" stroke="none" />
            </g>
        </g>
        <path d="M0 37.2458L107.174 99.1011L171.6 61.9177L64.538 0L0 37.2458Z" transform="translate(308 85.88764)" id="Path" fill="#173D7A" fill-opacity="0.5" stroke="none" />
        <g id="Group" transform="translate(305.8 0)">
            <g id="Group">
                <path d="M90.5863 86.5961L76.4281 78.4495L128.629 48.4123C131.094 46.9934 131.094 44.6849 128.629 43.266L75.302 12.5798C72.8357 11.1609 68.8244 11.1609 66.3595 12.5798L14.1582 42.6171L0 34.4705L52.2013 4.43321C62.4735 -1.47774 79.188 -1.47774 89.4602 4.43321L142.789 35.1194C153.061 41.0304 153.061 50.6479 142.789 56.5588L90.5863 86.5961Z" transform="translate(114.7518 0.8573808)" id="Path" fill="#FF2C9C" stroke="none" />
                <g id="Group" transform="translate(0 15.60648)">
                    <path d="M224.448 75.2207C224.448 67.6763 219.846 58.9132 214.17 55.6463L119.59 1.2239C117.048 -0.239204 114.726 -0.341946 112.931 0.656868L112.926 0.652966L0 66.0558L109.203 148.069L220.457 83.7119C220.8 83.5559 221.133 83.3751 221.439 83.1436L221.441 83.1423L221.441 83.1423C223.3 81.7403 224.448 78.9897 224.448 75.2207Z" transform="translate(3.734629 0.213193)" id="Path" fill="#D4ECFF" stroke="none" />
                    <path d="M14.3474 83.7495L125.601 19.3936C125.944 19.2376 126.277 19.0568 126.583 18.8253L126.585 18.824L126.585 18.824C128.443 17.422 129.591 14.6701 129.591 10.9011C129.591 7.29993 128.534 3.42692 126.821 0L0 72.9759L14.3474 83.7495Z" transform="translate(98.59056 64.53278)" id="Path" fill="#396CAA" stroke="none" />
                    <path d="M104.858 82.9696L10.2787 28.5473C4.60239 25.2803 0 16.5173 0 8.97413L0 8.97413C0 1.431 4.60239 -2.03754 10.2787 1.22942L104.858 55.6518C110.534 58.9188 115.137 67.6818 115.137 75.2249L115.137 75.2249C115.137 82.7693 110.534 86.2366 104.858 82.9696Z" transform="translate(0.9682373 65.02137)" id="Path" fill="#5793CE" stroke="none" />
                    <path d="M101.378 55.643L6.79854 1.22057C4.18874 -0.280249 1.81251 -0.345276 0 0.741975C1.6233 0.250371 3.5676 0.532588 5.66066 1.73689L100.24 56.1593C105.916 59.4262 110.519 68.1893 110.519 75.7324L110.519 75.7337C110.519 79.8083 109.168 82.6799 107.038 83.957C109.821 83.113 111.658 79.9813 111.658 75.2187L111.658 75.2174C111.657 67.6743 107.055 58.9112 101.378 55.643Z" transform="translate(5.586285 64.5139)" id="Path" fill="#FFFFFF" stroke="none" />
                </g>
                <path d="M13.4196 12.2284L2.0487 5.69055C0.917346 5.03898 0 3.29236 0 1.78894L0 1.78894C0 0.285514 0.917346 -0.406373 2.0487 0.245197L13.4196 6.78301C14.551 7.43458 15.4683 9.1812 15.4683 10.6846L15.4683 10.6846C15.4683 12.188 14.551 12.8786 13.4196 12.2284Z" transform="translate(78.24062 133.0159)" id="Path" fill="#FFFFFF" stroke="none" />
            </g>
            <g id="Group" transform="translate(88.73333 58.52428)">
                <path d="M15.1236 8.61545C18.5542 6.59311 18.5203 3.37428 15.048 1.42477C11.5756 -0.524741 5.98151 -0.466217 2.55092 1.55482C-0.879667 3.57716 -0.845739 6.796 2.6266 8.74551C6.09895 10.695 11.6944 10.6365 15.1236 8.61545Z" transform="translate(0.6278209 0.7250241)" id="Path" fill="#5793CE" stroke="none" />
                <path d="M15.1236 8.61545C18.5542 6.59441 18.5203 3.37428 15.048 1.42477C11.5756 -0.524741 5.9802 -0.466217 2.55092 1.55482C-0.879667 3.57716 -0.845739 6.796 2.6266 8.74551C6.09764 10.6963 11.6931 10.6378 15.1236 8.61545Z" transform="translate(19.67286 11.41936)" id="Path" fill="#FFFFFF" stroke="none" />
                <path d="M15.1237 8.61545C18.5542 6.59441 18.5203 3.37428 15.048 1.42477C11.5756 -0.524741 5.98151 -0.466217 2.55092 1.55482C-0.879667 3.57716 -0.84574 6.796 2.6266 8.7455C6.09895 10.6963 11.6944 10.6378 15.1237 8.61545Z" transform="translate(38.7166 22.115)" id="Path" fill="#FFFFFF" stroke="none" />
            </g>
        </g>
        <g id="Group" transform="translate(162.8 41.8427)">
            <g id="Group">
                <g id="Group" transform="translate(3.887671 0)">
                    <path d="M15.2268 0.808531C15.2268 0.808531 10.3672 -1.65228 7.3841 2.01226C4.39966 5.6755 0.134889 14.3254 0.00270797 20.171C-0.129473 26.0153 4.6083 25.621 7.42557 24.2376C10.2415 22.8543 18.4691 10.8691 18.9681 8.5215C19.467 6.17391 18.381 2.99736 17.5892 2.37663C16.7949 1.7533 15.2268 0.808531 15.2268 0.808531Z" transform="translate(19.28144 202.7139)" id="Path" fill="#FF2C9C" stroke="none" />
                    <path d="M9.19844 1.16692L9.42392 6.22258C9.47187 7.29748 8.93278 8.32162 8.00103 8.85257C7.15223 9.33536 5.91983 9.70624 4.25332 9.43816C0.592427 8.84736 0.265863 7.79719 0.00538874 2.74283C-0.257677 -2.31153 9.19844 1.16692 9.19844 1.16692Z" transform="translate(26.36987 201.1792)" id="Path" fill="#D4ECFF" stroke="none" />
                    <g id="Group" transform="translate(0 89.79163)">
                        <path d="M15.2268 0.808531C15.2268 0.808531 10.3672 -1.65228 7.3841 2.01226C4.39966 5.6768 0.133593 14.3254 0.00270797 20.171C-0.129473 26.0153 4.6083 25.621 7.42557 24.2376C10.2415 22.8543 18.4691 10.8691 18.9681 8.5215C19.4657 6.17261 18.381 2.99736 17.5892 2.37663C16.7962 1.7546 15.2268 0.808531 15.2268 0.808531Z" transform="translate(1.494045 103.2014)" id="Path" fill="#FF2C9C" stroke="none" />
                        <path d="M9.19963 1.16747L9.42511 6.22313C9.47306 7.29803 8.93397 8.32217 8.00222 8.85312C7.15342 9.33721 5.92102 9.70679 4.25451 9.43871C0.594915 8.84791 0.267055 7.79774 0.00528474 2.74338C-0.255189 -2.31228 9.19963 1.16747 9.19963 1.16747Z" transform="translate(8.581285 101.6674)" id="Path" fill="#D4ECFF" stroke="none" />
                        <path d="M60.2152 9.61683C58.7768 -13.8812 34.8741 13.0745 34.8741 13.0745L18.5148 29.1771L3.78309 45.4281C0.906215 48.602 -0.43244 52.8873 0.123497 57.1426L6.0833 102.711C6.37746 104.961 8.29538 106.622 10.5554 106.604C11.1943 106.598 11.9252 106.54 12.7636 106.41C18.0794 105.578 17.688 100.502 17.688 100.502L16.5982 57.8818L47.5362 39.1531C47.5349 39.1531 61.6524 33.1149 60.2152 9.61683Z" transform="translate(0.923582 0.4072984)" id="Path" fill="#173D7A" stroke="none" />
                    </g>
                    <path d="M60.2165 9.61683C58.7781 -13.8812 34.8754 13.0745 34.8754 13.0745L18.5148 29.1771L3.78309 45.4281C0.906215 48.602 -0.43244 52.8873 0.123497 57.1426L6.0833 102.711C6.37746 104.961 8.29538 106.622 10.5554 106.604C11.193 106.598 11.9252 106.54 12.7636 106.41C18.0794 105.578 17.688 100.503 17.688 100.503L16.6305 59.1089L47.5375 39.1544C47.5362 39.1531 61.655 33.1149 60.2165 9.61683Z" transform="translate(18.70838 99.15206)" id="Path" fill="#173D7A" stroke="none" />
                    <path d="M34.9614 2.61572C53.0831 10.1608 52.7203 20.9176 52.7203 20.9176C52.7203 20.9176 49.1708 60.3543 50.3825 86.6932C50.8892 97.7038 -7.87167 98.5431 0.891143 69.1695C11.2233 34.5347 7.35116 6.49628 12.1874 2.26697C17.0237 -1.96235 30.2729 0.663731 34.9614 2.61572Z" transform="translate(29.82276 30.7243)" id="Path" fill="#FF2C9C" stroke="none" />
                    <path d="M18.2654 9.43112C17.3181 13.1256 12.4974 15.0737 7.49788 13.7802C2.49963 12.4866 -0.785452 8.44341 0.163139 4.74894C1.11043 1.05447 5.93115 -0.893619 10.9307 0.399901C15.9289 1.69342 19.2127 5.73665 18.2654 9.43112Z" transform="translate(52.34893 33.44633)" id="Path" fill="#FFC2B0" stroke="none" />
                    <path d="M14.3496 1.80624L11.0153 5.44215C10.5825 5.91454 10.3764 6.55219 10.449 7.18854L12.7414 27.0936C12.8062 27.6519 12.652 28.2128 12.3125 28.6591L5.13842 38.0834C4.82093 38.5011 4.16521 38.3866 4.00711 37.8856L0.101295 25.5412C-0.046436 25.074 -0.0321813 24.5704 0.141468 24.1123L7.01228 6.03426C7.1626 5.63865 7.1963 5.20791 7.10947 4.79279L6.10386 0L14.3496 1.80624Z" transform="translate(49.00777 45.50093)" id="Path" fill="#FFFFFF" stroke="none" />
                    <path d="M8.1496 15.4916C9.25759 15.7779 10.3734 15.9197 11.4606 15.9197C12.9211 15.9197 14.3297 15.6621 15.5919 15.1532C17.8895 14.2267 19.4446 12.5792 19.9733 10.5179C20.502 8.4566 19.9318 6.25996 18.3677 4.334C16.8658 2.48611 14.6096 1.0989 12.0152 0.42741C9.41828 -0.241473 6.77726 -0.123052 4.57295 0.767057C2.27663 1.6923 0.722856 3.33978 0.192837 5.40109C-0.337182 7.46239 0.234305 9.65773 1.79715 11.5837C3.29909 13.4329 5.55523 14.8201 8.1496 15.4916ZM5.2183 2.3794C6.27834 1.95126 7.46408 1.73655 8.70295 1.73655C9.64377 1.73655 10.6157 1.86147 11.5811 2.11133C13.8204 2.69172 15.7539 3.87072 17.0239 5.43362C18.2303 6.91843 18.6826 8.56982 18.2938 10.082C17.9051 11.5941 16.7167 12.8213 14.944 13.537C13.0818 14.2918 10.8191 14.3855 8.58113 13.8051C6.34184 13.2247 4.40837 12.0457 3.1384 10.4828C1.93322 8.99796 1.48095 7.34657 1.86972 5.83443C2.25849 4.32098 3.44682 3.09513 5.2183 2.3794Z" transform="translate(51.4795 32.57817)" id="Shape" fill="#FFFFFF" fill-rule="evenodd" stroke="none" />
                    <path d="M0.157941 3.62706C0.157941 3.62706 0.314744 4.35711 0.00113825 10.1233C-0.0973494 11.936 6.224 13.6304 7.85812 11.9894C9.49224 10.3484 8.83911 8.64238 9.23047 2.47148C9.62183 -3.69811 0.157941 3.62706 0.157941 3.62706Z" transform="translate(57.36015 28.89182)" id="Path" fill="#FFC2B0" stroke="none" />
                    <path d="M9.23063 0C9.23063 0 7.67426 5.72064 0 7.91468L0.11663 2.71587L9.23063 0Z" transform="translate(57.3587 31.3633)" id="Path" fill="#EA9C92" stroke="none" />
                    <path d="M13.9786 27.9138C21.71 27.9025 27.9867 21.6447 27.9979 13.9365C28.0091 6.22837 21.7507 -0.011222 14.0193 1.51542e-05C6.2879 0.0112523 0.0112522 6.26907 1.51087e-05 13.9772C-0.011222 21.6854 6.24721 27.925 13.9786 27.9138Z" transform="matrix(0.3750087 -0.9270213 0.9270213 0.3750087 39.75153 28.08719)" id="Oval" fill="#FFC2B0" stroke="none" />
                    <path d="M17.2532 3.38215C17.2532 3.38215 9.57244 6.68622 4.25541 6.72396C-1.06293 6.7617 0.109853 2.29034 0.109853 2.29034L15.8964 0L17.2532 3.38215Z" transform="translate(43.89729 17.46772)" id="Path" fill="#EA9C92" stroke="none" />
                    <path d="M8.73377 21.4403C8.73377 21.4403 15.4244 18.5878 21.2935 19.7772C22.6737 20.057 23.9527 20.7974 24.8404 21.8944C25.1307 22.2523 25.4974 22.5789 25.9134 22.6739C26.954 22.9108 28.6581 18.5748 30.681 18.4758C32.7039 18.3769 34.0542 19.8149 32.3954 22.4813C30.7367 25.1478 31.2978 28.133 32.0611 28.5598C32.8244 28.9867 42.2714 22.3668 35.1311 8.16283C27.9907 -6.04117 8.50051 2.00364 5.67806 4.88218C5.67806 4.88218 2.70658 7.48223 0.289746 5.16847C0.289746 5.16847 -2.41996 25.5473 8.73377 21.4403Z" transform="translate(37.83276 0.280189)" id="Path" fill="#D4ECFF" stroke="none" />
                    <path d="M23.2107 6.06549L23.2107 16.7221C23.2107 17.9427 22.6988 19.1074 21.7995 19.9298L0 39.8883L2.47645 43.6921L32.51 23.9171C33.8538 22.9385 34.7208 21.4329 34.8944 19.775L36.9484 0L23.2107 6.06549Z" transform="translate(49.16608 74.38911)" id="Path" fill="#FFC2B0" stroke="none" />
                    <path d="M10.2219 0C10.2219 0 16.8348 9.98769 19.2996 36.2784C19.2996 36.2784 8.00204 39.9482 1.59127 37.8647C-4.82209 35.7813 10.2219 0 10.2219 0Z" transform="translate(70.7868 46.31296)" id="Path" fill="#FF2C9C" stroke="none" />
                    <path d="M2.73799 0C2.73799 0 0.148803 13.9151 0.0010717 20.4556C-0.0391009 22.2527 1.05333 23.8755 2.73799 24.4871L2.73799 24.4871L2.73799 0Z" transform="translate(68.43102 58.94104)" id="Path" fill="#D3008D" stroke="none" />
                </g>
                <g id="Group" transform="translate(3.887671 105.4076)">
                    <path d="M64.7634 19.0619L59.9453 18.4229L28.8426 0.390411C27.8448 -0.187379 26.1044 -0.115806 24.9524 0.551776L2.91316 13.3243L0 12.9378L0 15.8502L0.00259178 15.8502C-0.0168466 16.2341 0.200863 16.6024 0.671271 16.8756L35.9195 37.3117C36.9173 37.8895 38.6577 37.8179 39.8098 37.1503L63.8109 23.2391C64.4589 22.8643 64.7816 22.3802 64.7621 21.9261L64.7621 21.9261L64.7621 19.0619L64.7634 19.0619Z" transform="translate(0.7503206 3.664527)" id="Path" fill="#5793CE" stroke="none" />
                    <path d="M41.3933 1.28051L39.1838 0L14.8898 0L2.91316 6.93868L0 6.55219L0 9.46456L0.00259178 9.46456C-0.0168466 9.84845 0.200863 10.2167 0.671271 10.49L35.9195 30.9261C36.4469 31.2319 37.1817 31.3542 37.9268 31.3034L41.3933 1.28051Z" transform="translate(0.7503206 10.05146)" id="Path" fill="#396CAA" stroke="none" />
                    <path d="M1.29459 0.171775L0.00129589 0L0.00129589 2.91237L0.00388767 2.91237C-0.0155507 3.29626 0.202159 3.66454 0.672567 3.93782L1.2933 4.29829L1.2933 0.171775L1.29459 0.171775Z" transform="translate(0.7477288 16.60364)" id="Path" fill="#5793CE" stroke="none" />
                    <path d="M0 5.16107C0.944704 5.52154 2.29632 5.44215 3.30582 4.95546L3.30582 0L0 0L0 5.16107Z" transform="translate(37.02488 35.98302)" id="Path" fill="#5793CE" stroke="none" />
                    <path d="M35.9211 37.155L0.672887 16.7189C-0.323653 16.1411 -0.199247 15.1313 0.952799 14.4637L24.954 0.552518C26.1047 -0.115064 27.8464 -0.187938 28.8442 0.389852L64.0925 20.8259C65.089 21.4037 64.9646 22.4135 63.8126 23.0811L39.8114 36.9923C38.6593 37.6599 36.9176 37.7328 35.9211 37.155Z" transform="translate(0.7487049 0.9127777)" id="Path" fill="#FFFFFF" stroke="none" />
                    <path d="M29.8692 26.5898L0.560057 9.59705C-0.269313 9.11686 -0.165642 8.2762 0.792021 7.72183L13.6537 0.459121C14.6114 -0.0952444 16.0589 -0.156407 16.8883 0.323783L46.1974 17.3165C47.0268 17.7967 46.9231 18.6374 45.9655 19.1917L33.1037 26.4544C32.1461 27.0101 30.6986 27.0713 29.8692 26.5898Z" transform="translate(6.204491 8.379498)" id="Path" fill="#D4ECFF" stroke="none" />
                </g>
                <path d="M0.563066 1.22763L0.198921 3.67022C-0.112093 5.75105 -0.0576657 7.87091 0.357019 9.93221L0.791143 12.0846C1.03607 13.2987 1.99243 14.2409 3.20539 14.4621L3.20539 14.4621C4.15268 14.6352 5.04814 13.9663 5.1557 13.0046L5.73756 7.78372C5.73756 7.78372 7.06714 9.53401 7.7099 9.53401C8.35137 9.53401 6.99068 4.30527 5.53799 1.34605C4.08659 -1.61187 0.563066 1.22763 0.563066 1.22763Z" transform="translate(30.38928 104.9737)" id="Path" fill="#FFC2B0" stroke="none" />
                <path d="M14.2392 7.37072L10.4565 14.8872C9.5623 16.6648 9.03617 18.6051 8.90917 20.5935L7.26727 46.3051L2.29106 46.1867L0.032319 17.3116C-0.0376591 16.4202 0.00640119 15.5235 0.160612 14.6425L2.74073 0L14.2392 7.37072Z" transform="translate(28.66129 60.01594)" id="Path" fill="#FFC2B0" stroke="none" />
                <g id="Group" transform="translate(0 89.79163)">
                    <path d="M37.5977 54.4262L34.6417 50.5522L3.56111 32.4819C2.56457 31.9028 1.75852 30.3504 1.75982 29.0152L1.78703 3.46232L0 1.11993L1.67947 0.143933L1.68077 0.146536C2.00215 -0.0616766 2.42979 -0.0564712 2.89891 0.216808L38.1225 20.6958C39.119 21.2749 39.9251 22.8274 39.9238 24.1625L39.894 51.9914C39.8927 52.7423 39.6361 53.2654 39.2344 53.475L39.2344 53.475L37.5977 54.4262Z" transform="translate(1.766299 1.219858)" id="Path" fill="#173D7A" stroke="none" />
                    <path d="M16.104 39.7746L13.8958 38.4902L1.77407 17.3475L1.78703 3.46232L0 1.11993L1.67947 0.143933L1.68077 0.146536C2.00215 -0.0616766 2.42979 -0.0564712 2.89891 0.216808L38.1225 20.6958C38.6486 21.0016 39.1216 21.5807 39.4508 22.2548L16.104 39.7746Z" transform="translate(1.766299 1.218557)" id="Path" fill="#396CAA" stroke="none" />
                    <path d="M0.793085 2.15969L0 1.11993L1.67947 0.143933L1.68077 0.146536C2.00215 -0.0616766 2.42979 -0.0564712 2.89891 0.216808L3.51964 0.577275L0.793085 2.15969Z" transform="translate(1.766299 1.219858)" id="Path" fill="#5793CE" stroke="none" />
                    <path d="M3.62072 0C4.40344 0.642856 5.00991 1.8583 5.09155 2.97874L1.64967 4.97498L0 2.09904L3.62072 0Z" transform="translate(36.58817 22.14079)" id="Path" fill="#274F89" stroke="none" />
                    <path d="M37.0612 20.6973L1.83757 0.218285C0.841034 -0.360806 0.0323988 0.25212 0.029807 1.58598L1.56038e-06 29.4149C-0.00129433 30.75 0.80475 32.3025 1.80129 32.8816L37.0249 53.3606C38.0214 53.9397 38.8301 53.3268 38.8327 51.9929L38.8625 24.164C38.8638 22.8289 38.0577 21.2764 37.0612 20.6973Z" transform="translate(1.150749 2.193075)" id="Path" fill="#5793CE" stroke="none" />
                </g>
                <path d="M11.6153 3.80378L11.0503 4.97758C10.4011 6.32966 9.3786 7.46702 8.10604 8.25432L4.60713 10.4197C3.51858 11.0938 2.13976 11.1485 1.03566 10.503C0.995485 10.4796 0.956608 10.4562 0.916435 10.4314C-0.195439 9.73133 -0.296518 8.1281 0.618381 7.18463L4.27409 3.41078C4.27409 3.41078 2.2201 4.99059 1.64473 4.35424C1.22227 3.88707 3.63651 1.61104 5.48963 1.53687C7.34276 1.46269 9.13627 0 9.13627 0L11.6153 3.80378Z" transform="translate(43.91489 114.2774)" id="Path" fill="#FFC2B0" stroke="none" />
                <path d="M18.8098 0C18.8098 0 5.40645 14.6451 0 28.0801C0 28.0801 4.58356 36.3721 15.8021 39.6254C27.0206 42.8788 18.8098 0 18.8098 0Z" transform="translate(27.45085 32.93661)" id="Path" fill="#FF2C9C" stroke="none" />
                <path d="M2.94685 21.0737L5.11877 0L0 19.745C0.912307 20.2226 1.89978 20.6664 2.94685 21.0737Z" transform="translate(37.78168 50.61905)" id="Path" fill="#D3008D" stroke="none" />
                <path d="M3.60128 0.994214L0 0C0 0 1.71965 2.71587 4.22979 3.40818C6.73993 4.10048 7.12999 1.96631 7.12999 1.96631L3.60128 0.994214Z" transform="translate(52.69738 28.98578)" id="Path" fill="#FFFFFF" stroke="none" />
            </g>
            <path d="M4.01208 2.01446C4.01208 3.12709 3.11403 4.02891 2.00604 4.02891C0.898052 4.02891 0 3.12709 0 2.01446C0 0.90182 0.898052 0 2.00604 0C3.11403 0 4.01208 0.90182 4.01208 2.01446Z" transform="translate(71.52408 22.17723)" id="Path" fill="#FFFFFF" stroke="none" />
        </g>
        <g id="Group" transform="translate(308 178.382)">
            <g id="Group">
                <path d="M37.1826 43.1458C57.718 43.1458 74.3652 33.4872 74.3652 21.5729C74.3652 9.65851 57.718 0 37.1826 0C16.6472 0 0 9.65851 0 21.5729C0 33.4872 16.6472 43.1458 37.1826 43.1458Z" transform="translate(5.5588 33.81009)" id="Oval" fill="#173D7A" fill-opacity="0.5" stroke="none" />
                <path d="M84.6001 28.6625L84.6001 16.727L82.3576 16.727C80.3439 13.2428 76.9912 9.96242 72.2098 7.18889C55.6894 -2.3963 28.9055 -2.3963 12.3864 7.18889C7.605 9.96242 4.2523 13.2441 2.2386 16.727L0 16.727L0 28.5985L0.0026 28.5985C-0.026 34.9006 4.0989 41.2093 12.3877 46.0182C28.9081 55.6034 55.692 55.6034 72.2111 46.0195C80.4713 41.2263 84.6014 34.9437 84.6001 28.6625Z" transform="translate(0.442 8.269952)" id="Path" fill="#FF2C9C" stroke="none" />
                <path d="M42.302 49.0873C65.6647 49.0873 84.604 38.0988 84.604 24.5437C84.604 10.9886 65.6647 0 42.302 0C18.9392 0 0 10.9886 0 24.5437C0 38.0988 18.9392 49.0873 42.302 49.0873Z" transform="translate(0.4394 0.4520206)" id="Oval" fill="#FF2C9C" stroke="none" />
                <path d="M72.1716 16.5745C55.6525 26.1597 28.8686 26.1597 12.3482 16.5745C4.43119 11.9812 0.350492 6.01867 0.0215921 0C-0.335908 6.53993 3.74479 13.1452 12.3482 18.137C28.8686 27.7222 55.6525 27.7222 72.1716 18.137C80.7737 13.1465 84.8544 6.54123 84.4969 0.00130642C84.168 6.01867 80.0886 11.9812 72.1716 16.5745Z" transform="translate(0.4815079 25.77693)" id="Path" fill="#FFFFFF" stroke="none" />
            </g>
            <path d="M1.11411 19.7622C0.403012 19.3494 -0.00258758 18.7876 1.24237e-05 18.1958L0.0429124 2.20523C0.0455124 0.986347 1.75371 -0.00130512 3.85581 1.29456e-06C5.95921 1.29456e-06 7.65701 0.991572 7.65701 2.21307L7.62191 15.4732L45.916 10.761C47.9739 10.5075 49.9941 11.2705 50.4309 12.4632C50.8677 13.656 49.5534 14.8292 47.4968 15.0826L4.59811 20.3618C3.47231 20.5003 2.30101 20.337 1.40791 19.9163C1.30521 19.868 1.20641 19.8171 1.11411 19.7622Z" transform="translate(21.23809 13.35943)" id="Path" fill="#FFFFFF" stroke="none" />
        </g>
        <g id="Group" transform="translate(83.6 323.7303)">
            <g id="Group">
                <path d="M22.7449 25.6282L0 12.8141L22.7449 0L45.4898 12.8141L22.7449 25.6282Z" transform="translate(0.7062 42.22285)" id="Path" fill="#173D7A" fill-opacity="0.5" stroke="none" />
                <path d="M22.7449 25.6269L0 38.441L0 12.8141L22.7449 0L22.7449 25.6269Z" transform="translate(23.45112 13.13998)" id="Path" fill="#D3008D" stroke="none" />
                <path d="M22.7436 25.6282L0 12.8141L22.7436 0L45.4872 12.8141L22.7436 25.6282Z" transform="translate(0.70752 0.325891)" id="Path" fill="#FF2C9C" stroke="none" />
                <path d="M22.7436 38.441L0 25.6269L0 0L22.7436 12.8141L22.7436 38.441Z" transform="translate(0.70752 13.13998)" id="Path" fill="#FF2C9C" stroke="none" />
            </g>
            <path d="M6.3624 10.7518L0 7.16831L0 0L6.3624 3.5848L6.3624 10.7518Z" transform="translate(8.89812 26.98455)" id="Path" fill="#FFFFFF" stroke="none" />
        </g>
    </g>
</svg>