<?xml version="1.0" encoding="utf-8"?>
<svg width="511px" height="493px" viewBox="0 0 511 493" version="1.1" 
    xmlns:xlink="http://www.w3.org/1999/xlink" 
    xmlns="http://www.w3.org/2000/svg">
    <desc>Created with Lunacy</desc>
    <g id="ILLUSTRATION">
        <g id="Background" transform="translate(44.1489 0)">
            <path d="M0 0L408.552 0L408.552 409.026L0 409.026L0 0Z" transform="translate(0.5052867 0)" id="Rectangle" fill="#F3F3F3" stroke="none" />
            <path d="M0 0L408.552 0L408.552 31.1345L0 31.1345L0 0Z" transform="translate(0.5052867 0)" id="Rectangle" fill="#E1E1E1" stroke="none" />
            <path d="M4.8283 9.80795C7.49489 9.80795 9.65659 7.61236 9.65659 4.90397C9.65659 2.19558 7.49489 0 4.8283 0C2.1617 0 0 2.19558 0 4.90397C0 7.61236 2.1617 9.80795 4.8283 9.80795Z" transform="translate(17.23589 11.06245)" id="Oval" fill="#FD8369" stroke="none" />
            <path d="M4.82829 9.80795C7.49489 9.80795 9.65659 7.61236 9.65659 4.90397C9.65659 2.19558 7.49489 0 4.82829 0C2.1617 0 0 2.19558 0 4.90397C0 7.61236 2.1617 9.80795 4.82829 9.80795Z" transform="translate(32.78749 11.06245)" id="Oval" fill="#FD8369" stroke="none" />
            <path d="M4.82829 9.80795C7.49489 9.80795 9.65659 7.61236 9.65659 4.90397C9.65659 2.19558 7.49489 0 4.82829 0C2.1617 0 0 2.19558 0 4.90397C0 7.61236 2.1617 9.80795 4.82829 9.80795Z" transform="translate(48.33909 11.06245)" id="Oval" fill="#FD8369" stroke="none" />
            <path d="M0 0L163.32 0L163.32 89.8682L0 89.8682L0 0Z" transform="translate(20.49218 53.82966)" id="Rectangle" fill="#FFFFFF" stroke="none" />
            <path d="M0 0L163.32 0L163.32 89.8682L0 89.8682L0 0Z" transform="translate(20.49218 165.0244)" id="Rectangle" fill="#FFFFFF" stroke="none" />
            <path d="M0 0L163.32 0L163.32 193.821L0 193.821L0 0Z" transform="translate(223.5613 165.0244)" id="Rectangle" fill="#FFFFFF" stroke="none" />
            <path d="M0 0L224.235 0L224.235 8.66749L0 8.66749L0 0Z" transform="translate(212.1643 60.33028)" id="Rectangle" fill="#E1E1E1" stroke="none" />
            <path d="M0 0L224.235 0L224.235 8.66749L0 8.66749L0 0Z" transform="translate(212.1643 84.79312)" id="Rectangle" fill="#E1E1E1" stroke="none" />
            <path d="M0 0L224.235 0L224.235 8.66749L0 8.66749L0 0Z" transform="translate(212.1643 109.256)" id="Rectangle" fill="#E1E1E1" stroke="none" />
            <path d="M0 0L224.235 0L224.235 8.66748L0 8.66748L0 0Z" transform="translate(212.1643 133.7188)" id="Rectangle" fill="#E1E1E1" stroke="none" />
        </g>
        <g id="Foreground" transform="translate(0 136.1619)">
            <path d="M0 0L8.60098 0L8.60098 13.2036L0 13.2036L0 0Z" transform="translate(370.4047 269.8766)" id="Rectangle" fill="#DE8E68" stroke="none" />
            <path d="M0 0L8.60098 0L8.60098 13.2036L0 13.2036L0 0Z" transform="translate(471.7615 325.6503)" id="Rectangle" fill="#DE8E68" stroke="none" />
            <path d="M63.9087 0C53.5089 0 7.07476 46.7247 3.02723 54.5786C-1.02029 62.4324 0.160238 123.954 0.160238 123.954L10.1666 125.889L26.4129 68.5789C33.4961 67.7252 63.2904 61.2373 78.6934 48.6597C94.0965 36.0253 77.2318 7.85385 77.2318 7.85385L63.9087 0Z" transform="translate(369.6261 147.6866)" id="Path" fill="#6FC9CE" stroke="none" />
            <path d="M74.4295 7.00017C69.3139 11.61 59.0826 23.1632 58.2394 24.6429C55.6535 23.3908 28.7262 9.049 26.7024 8.13841C24.6787 7.22782 20.4063 0 18.9447 0C18.1014 0 17.3144 1.65045 17.3144 2.78869C17.3144 4.72369 18.2139 6.20341 18.776 6.82944C16.8647 6.54488 0 5.2359 0 6.37414C0 9.33356 18.8884 13.2605 20.3501 14.0573C21.8117 14.854 52.5616 43.6515 63.2426 43.6515C67.4025 43.6515 85.785 31.017 85.785 29.6511C87.5277 28.456 90.2261 26.6917 90.2261 26.6917L90.2261 16.6752L83.8175 11.9515C83.8175 11.8946 75.4414 6.08958 74.4295 7.00017Z" transform="translate(341.7348 77.22955)" id="Path" fill="#DE8E68" stroke="none" />
            <path d="M0.00346098 23.1733C1.12777 13.9536 22.0962 -6.99004 31.7091 2.34352C40.0852 10.4819 24.907 39.5639 21.0281 40.7022C16.6433 41.1575 -0.277617 29.4336 0.00346098 23.1733Z" transform="translate(415.4862 57.75552)" id="Path" fill="#FEBF92" stroke="none" />
            <path d="M6.07741 0.548157C16.7584 -4.0048 31.7117 21.0365 30.0253 30.1424C30.0253 34.1262 8.10117 42.663 4.72824 40.3865C1.3553 38.1101 -4.60355 5.10112 6.07741 0.548157Z" transform="translate(473.3856 61.20134)" id="Path" fill="#FED892" stroke="none" />
            <path d="M0 2.90251L35.3034 176.769L44.3541 176.769L47.5584 21.6835C47.5584 19.0086 47.3335 2.16266 47.3335 0C37.1023 3.01633 15.2906 5.40664 0 2.90251Z" transform="translate(436.4019 148.8248)" id="Path" fill="#74D5DE" stroke="none" />
            <path d="M15.122 0L23.723 0L23.723 9.44739L0 9.44739L15.122 0Z" transform="translate(456.6395 338.8539)" id="Path" fill="#000000" stroke="none" />
            <path d="M15.122 0L23.723 0L23.723 9.44739L0 9.44739L15.122 0Z" transform="translate(355.2827 283.0802)" id="Path" fill="#000000" stroke="none" />
            <path d="M0 0L102.369 0L102.369 60.6682L0 60.6682L0 0Z" transform="translate(318.7426 292.5276)" id="Rectangle" fill="#FD8369" stroke="none" />
            <path d="M53.3486 51.8468L13.829 51.3915L0 0L66.2782 0L53.3486 51.8468Z" transform="translate(8.319912 304.6498)" id="Path" fill="#FD8369" stroke="none" />
            <path d="M28.6499 0C55.0713 0 64.2906 22.2526 64.2906 29.4804C64.2906 36.7082 56.027 80.815 56.3642 100.45C56.4205 103.694 8.97448 106.596 2.50969 101.872C-0.525958 99.6529 -7.04697 0 28.6499 0Z" transform="translate(427.4274 48.37518)" id="Path" fill="#FECC92" stroke="none" />
            <path d="M28.7824 0C36.2591 11.61 35.8094 38.3587 35.8094 42.3994C35.8094 46.4402 7.9264 82.75 5.50913 82.75C4.04753 81.2703 0 76.7743 0 75.4084C1.29296 73.0181 17.8766 36.3098 20.856 33.6919C19.5068 32.0414 7.64533 13.2036 7.13939 10.0734C17.5393 8.30915 27.6019 3.87001 28.7824 0Z" transform="translate(474.6285 91.34372)" id="Path" fill="#DE8E68" stroke="none" />
            <path d="M29.9071 30.4498C31.5935 21.3439 17.9331 -5.06328 5.95919 0.855569C-4.44071 6.03456 1.23707 38.4175 4.61001 40.694C8.65754 42.4582 28.333 36.4825 29.9071 30.4498Z" transform="translate(473.5038 60.89392)" id="Path" fill="#FED892" stroke="none" />
            <path d="M0.574754 14.1711C0.0125981 15.9354 -0.26848 21.3989 0.349892 23.8461C0.406107 23.9599 11.593 24.8136 12.8298 22.8217C12.886 21.1713 15.5843 6.48797 19.2383 1.93501C19.5756 1.4228 18.8448 0 18.8448 0L5.85902 5.46355L0.574754 14.1711" transform="translate(448.7567 28.74055)" id="Path" fill="#D38466" stroke="none" />
            <path d="M34.9099 29.9926C35.7531 31.1308 36.8212 31.6431 37.7769 31.6431C39.9131 31.6431 44.8601 29.6511 44.8601 22.5371C44.8601 17.4151 39.9131 14.7971 39.9131 12.3499C39.9131 10.0165 40.5315 9.9596 40.5315 8.02459C40.5315 7.05709 39.5758 3.87001 36.5964 3.87001C34.9099 3.87001 34.2915 5.29281 32.6051 5.29281C30.75 5.29281 29.0635 1.65045 26.2527 1.65045C24.3414 1.65045 22.5425 3.47163 20.5187 3.47163C18.2139 3.47163 16.6398 0 13.4355 0C10.1188 0 8.93829 3.01633 7.64533 3.01633C6.01507 3.01633 5.73399 2.56104 4.10374 2.56104C3.09186 2.56104 0 4.38222 0 7.68312C0 10.0165 0.955666 13.8296 5.73399 13.8296C8.54478 13.8296 10.1188 18.3257 12.5923 18.3257C13.548 18.3257 14.3912 17.5289 14.6161 17.9273C15.5717 19.6346 17.5393 24.3014 17.5393 24.3014L26.4776 29.3666L34.9099 29.9926Z" transform="translate(431.23 -5.684342E-14)" id="Path" fill="#FD8369" stroke="none" />
            <path d="M21.2711 13.7727C21.2711 14.5695 20.99 14.7402 19.8095 14.7402C19.2473 14.7402 18.4603 14.0003 18.4603 13.2036C18.4603 11.3255 19.8095 10.9271 19.8095 8.47989C19.8095 4.32531 9.07231 2.16266 5.30586 0L5.30586 0C3.95668 1.36589 3.00102 3.13016 2.60751 5.12208L0.190235 17.6996C-0.877863 23.1632 2.66372 28.456 8.00421 29.5373C13.3447 30.6186 18.629 27.0332 19.6971 21.6266L20.0906 19.4639L20.0906 19.4639C20.3154 19.5208 20.5403 19.5777 20.7089 19.5777C22.1143 19.5777 23.1824 18.2687 23.1824 16.6752C23.2949 15.1955 21.2711 12.5775 21.2711 13.7727Z" transform="translate(442.9013 13.88652)" id="Path" fill="#DE8E68" stroke="none" />
            <path d="M46.8908 116.427C35.479 39.0837 7.53982 -1.49454 3.99824 0.042082C-1.00495 2.26165 -2.46656 45.6855 6.47172 90.5321C6.69659 90.5321 6.86523 90.4752 7.09009 90.4752C9.67601 90.4752 11.756 92.581 11.756 95.1989C11.756 95.9957 11.5873 96.7355 11.2501 97.3616C12.7679 98.1583 13.836 99.7519 13.836 101.573C13.836 103.85 12.2057 105.785 10.0695 106.24C12.7117 116.598 16.0284 126.842 19.9635 136.346C21.9872 136.346 44.6983 136.346 44.6983 136.346C44.6983 136.346 48.5772 127.696 46.8908 116.427Z" transform="translate(0.2179357 168.0759)" id="Path" fill="#6FC9CE" stroke="none" />
            <path d="M82.5807 35.6838C75.6662 35.6838 68.2458 55.8307 60.0383 55.8307C58.2394 55.8307 57.0589 53.8387 57.0589 51.9606C57.0589 50.1395 62.7366 30.1064 62.7366 20.3745C62.7366 19.5208 62.6804 18.6102 62.568 17.6996C61.6685 18.2687 60.5442 18.6102 59.4199 18.6102C56.047 18.6102 53.2924 15.8215 53.2924 12.4068C53.2924 9.39048 55.3724 6.94326 58.1832 6.31723C55.3162 2.61795 51.1 0 45.366 0C38.1142 0 27.8829 6.54488 27.8829 16.6752C27.8829 19.5208 28.7262 26.7486 28.7262 33.2935C28.7262 70.4001 0 75.9775 0 117.068C0 125.719 4.72211 135.223 6.1275 137.556C6.1275 137.556 30.1878 137.841 32.4926 137.841C34.7975 137.841 53.5173 106.198 55.6535 102.84C63.8047 90.0917 90.9007 76.0913 90.9007 45.6434C90.9007 41.375 89.3828 35.6838 82.5807 35.6838Z" transform="translate(30.5813 166.809)" id="Path" fill="#74D5DE" stroke="none" />
        </g>
    </g>
</svg>