<?xml version="1.0" encoding="utf-8"?>
<svg width="161px" height="40px" viewBox="0 0 161 40" version="1.1" 
    xmlns:xlink="http://www.w3.org/1999/xlink" 
    xmlns="http://www.w3.org/2000/svg">
    <desc>Created with Lunacy</desc>
    <g id="DigitalBlend">
        <g id="Digital" fill="#333333">
            <path d="M81.0938 30.5029L83.4961 30.5029L83.4961 8.2959L81.0938 8.2959L81.0938 30.5029ZM24.6973 11.6943Q24.0527 11.6943 23.5986 11.2549Q23.1445 10.8154 23.1445 10.1416Q23.1445 9.46777 23.5986 9.021Q24.0527 8.57422 24.6973 8.57422Q25.3564 8.57422 25.8179 9.021Q26.2793 9.46777 26.2793 10.1416Q26.2793 10.7861 25.8179 11.2402Q25.3564 11.6943 24.6973 11.6943ZM49.6289 11.6943Q48.9844 11.6943 48.5303 11.2549Q48.0762 10.8154 48.0762 10.1416Q48.0762 9.46777 48.5303 9.021Q48.9844 8.57422 49.6289 8.57422Q50.2881 8.57422 50.7495 9.021Q51.2109 9.46777 51.2109 10.1416Q51.2109 10.7861 50.7495 11.2402Q50.2881 11.6943 49.6289 11.6943ZM2.75391 30.5029L2.75391 9.49707L8.55469 9.49707Q19.6582 9.49707 19.6582 19.7363Q19.6582 24.5996 16.5747 27.5513Q13.4912 30.5029 8.32031 30.5029L2.75391 30.5029ZM60.3809 30.8252Q61.7725 30.8252 62.6221 30.3564L62.6221 28.3057Q61.9629 28.8037 61.0547 28.8037Q59.8682 28.8037 59.3555 28.1592Q58.8428 27.5146 58.8428 26.0059L58.8428 17.5537L62.6221 17.5537L62.6221 15.5029L58.8428 15.5029L58.8428 11.0645L56.4404 11.8408L56.4404 15.5029L53.8623 15.5029L53.8623 17.5537L56.4404 17.5537L56.4404 26.4307Q56.4404 30.8252 60.3809 30.8252ZM5.21484 11.7236L5.21484 28.2764L8.34961 28.2764Q12.4805 28.2764 14.7803 26.0645Q17.0801 23.8525 17.0801 19.7949Q17.0801 11.7236 8.49609 11.7236L5.21484 11.7236ZM35.625 37.5635Q43.5352 37.5635 43.5352 29.3018L43.5352 15.5029L41.1328 15.5029L41.1328 17.583L41.0742 17.583Q39.6094 15.1514 36.5771 15.1514Q33.3838 15.1514 31.5454 17.4072Q29.707 19.6631 29.707 23.4863Q29.707 26.8555 31.4136 28.855Q33.1201 30.8545 35.918 30.8545Q39.3604 30.8545 41.0742 27.9834L41.1328 27.9834L41.1328 29.624Q41.1328 35.5127 35.5957 35.5127Q33.2959 35.5127 30.7617 34.1064L30.7617 36.5088Q32.8418 37.5635 35.625 37.5635ZM76.5674 30.5029L74.165 30.5029L74.165 28.1592L74.1064 28.1592Q72.5391 30.8545 69.4922 30.8545Q67.251 30.8545 65.9839 29.668Q64.7168 28.4814 64.7168 26.5186Q64.7168 22.3145 69.668 21.626L74.165 20.9961Q74.165 17.1729 71.0742 17.1729Q68.3643 17.1729 66.1816 19.0186L66.1816 16.5576Q68.3936 15.1514 71.2793 15.1514Q76.5674 15.1514 76.5674 20.7471L76.5674 30.5029ZM25.8691 30.5029L23.4668 30.5029L23.4668 15.5029L25.8691 15.5029L25.8691 30.5029ZM50.8008 30.5029L48.3984 30.5029L48.3984 15.5029L50.8008 15.5029L50.8008 30.5029ZM41.1328 21.5088L41.1328 23.7207Q41.1328 25.9619 39.8657 27.3975Q38.5986 28.833 36.5771 28.833Q34.585 28.833 33.3765 27.3315Q32.168 25.8301 32.168 23.3252Q32.168 20.4102 33.4277 18.7915Q34.6875 17.1729 36.9141 17.1729Q38.7158 17.1729 39.9243 18.4473Q41.1328 19.7217 41.1328 21.5088ZM74.165 22.915L70.5469 23.4131Q68.877 23.6475 68.0273 24.2407Q67.1777 24.834 67.1777 26.3428Q67.1777 27.4414 67.9614 28.1372Q68.7451 28.833 70.0488 28.833Q71.8359 28.833 73.0005 27.5806Q74.165 26.3281 74.165 24.4092L74.165 22.915Z" />
        </g>
        <g id="Blend" fill="#D2AC58">
            <path d="M107.959 30.5029L105.557 30.5029L105.557 8.2959L107.959 8.2959L107.959 30.5029ZM155.889 30.5029L158.291 30.5029L158.291 8.2959L155.889 8.2959L155.889 17.583L155.83 17.583Q154.424 15.1514 151.333 15.1514Q148.213 15.1514 146.338 17.3926Q144.463 19.6338 144.463 23.3545Q144.463 26.8262 146.155 28.8403Q147.847 30.8545 150.674 30.8545Q154.16 30.8545 155.83 27.9541L155.889 27.9541L155.889 30.5029ZM88.6816 30.5029L88.6816 9.49707L94.6582 9.49707Q97.3828 9.49707 98.9795 10.8301Q100.576 12.1631 100.576 14.3018Q100.576 16.0889 99.6094 17.4072Q98.6426 18.7256 96.9434 19.2822L96.9434 19.3408Q99.0674 19.5898 100.342 20.9448Q101.616 22.2998 101.616 24.4678Q101.616 27.1631 99.6826 28.833Q97.749 30.5029 94.8047 30.5029L88.6816 30.5029ZM91.1426 11.7236L91.1426 18.5059L93.6621 18.5059Q95.6836 18.5059 96.8408 17.5317Q97.998 16.5576 97.998 14.7852Q97.998 11.7236 93.9697 11.7236L91.1426 11.7236ZM114.287 23.6035L124.878 23.6035L124.878 22.3438Q124.878 18.96 123.267 17.0557Q121.655 15.1514 118.711 15.1514Q115.767 15.1514 113.782 17.356Q111.797 19.5605 111.797 23.0615Q111.797 26.7676 113.613 28.811Q115.43 30.8545 118.608 30.8545Q121.86 30.8545 123.838 29.4189L123.838 27.1631Q121.714 28.833 119.18 28.833Q116.924 28.833 115.635 27.4707Q114.346 26.1084 114.287 23.6035ZM140.962 30.5029L138.56 30.5029L138.56 21.9482Q138.56 17.1729 135.073 17.1729Q133.271 17.1729 132.092 18.5278Q130.913 19.8828 130.913 21.9482L130.913 30.5029L128.511 30.5029L128.511 15.5029L130.913 15.5029L130.913 17.9932L130.972 17.9932Q132.671 15.1514 135.894 15.1514Q138.354 15.1514 139.658 16.7407Q140.962 18.3301 140.962 21.333L140.962 30.5029ZM121.414 18.3301Q122.402 19.4873 122.417 21.5674L114.316 21.5674Q114.595 19.6045 115.781 18.3887Q116.968 17.1729 118.667 17.1729Q120.425 17.1729 121.414 18.3301ZM155.889 21.5088L155.889 23.7207Q155.889 25.9326 154.636 27.3828Q153.384 28.833 151.377 28.833Q149.341 28.833 148.132 27.3315Q146.924 25.8301 146.924 23.2373Q146.924 20.3955 148.184 18.7842Q149.443 17.1729 151.641 17.1729Q153.486 17.1729 154.688 18.4326Q155.889 19.6924 155.889 21.5088ZM91.1426 20.7178L91.1426 28.2764L94.4824 28.2764Q96.6504 28.2764 97.8442 27.251Q99.0381 26.2256 99.0381 24.4385Q99.0381 20.7178 93.9697 20.7178L91.1426 20.7178Z" />
        </g>
    </g>
</svg>