<?xml version="1.0" encoding="utf-8"?>
<svg width="306px" height="54px" viewBox="0 0 306 54" version="1.1" 
    xmlns:xlink="http://www.w3.org/1999/xlink" 
    xmlns="http://www.w3.org/2000/svg">
    <desc>Created with Lunacy</desc>
    <defs>
        <path d="M0 0.753403L0 16.7463C0 17.3473 0.624822 17.7053 1.09098 17.3728L12.2865 9.3888C12.7043 9.0917 12.7043 8.43508 12.2879 8.13723L1.09239 0.127617C0.625524 -0.205584 0 0.152438 0 0.753403" transform="translate(0.8 0)" id="path_1" />
        <clipPath id="mask_1">
            <use xlink:href="#path_1" />
        </clipPath>
    </defs>
    <g id="VIDEO_INTRO_BUTTON">
        <path d="M27 54C41.9117 54 54 41.9117 54 27C54 12.0883 41.9117 0 27 0C12.0883 0 0 12.0883 0 27C0 41.9117 12.0883 54 27 54Z" id="Oval" fill="#D2AC58" stroke="none" />
        <g id="Play-Filled-Dark" transform="translate(22 18)">
            <path d="M0 0.753403L0 16.7463C0 17.3473 0.624822 17.7053 1.09098 17.3728L12.2865 9.3888C12.7043 9.0917 12.7043 8.43508 12.2879 8.13723L1.09239 0.127617C0.625524 -0.205584 0 0.152438 0 0.753403" transform="translate(0.8 0)" id="Icon-Shape" fill="#FFFFFF" stroke="none" />
        </g>
        <g id="Watch-our-introduction-video" fill="#333333" transform="translate(77 17)">
            <path d="M45.2144 17.4517L46.5757 17.4517L46.5757 12.2139Q46.5757 8.75244 43.7036 8.75244Q41.894 8.75244 40.9146 10.3628L40.8813 10.3628L40.8813 4.86768L39.52 4.86768L39.52 17.4517L40.8813 17.4517L40.8813 12.6372Q40.8813 11.4336 41.562 10.6658Q42.2427 9.89795 43.2388 9.89795Q45.2144 9.89795 45.2144 12.5542L45.2144 17.4517ZM126.57 17.4517L125.209 17.4517L125.209 16.0073L125.176 16.0073Q124.229 17.6509 122.254 17.6509Q120.652 17.6509 119.693 16.5095Q118.734 15.3682 118.734 13.4009Q118.734 11.2925 119.797 10.0225Q120.859 8.75244 122.627 8.75244Q124.379 8.75244 125.176 10.1304L125.209 10.1304L125.209 4.86768L126.57 4.86768L126.57 17.4517ZM199.069 17.4517L200.431 17.4517L200.431 4.86768L199.069 4.86768L199.069 10.1304L199.036 10.1304Q198.239 8.75244 196.488 8.75244Q194.72 8.75244 193.657 10.0225Q192.595 11.2925 192.595 13.4009Q192.595 15.3682 193.553 16.5095Q194.512 17.6509 196.114 17.6509Q198.09 17.6509 199.036 16.0073L199.069 16.0073L199.069 17.4517ZM84.0205 6.54443Q84.2778 6.79346 84.6431 6.79346Q85.0166 6.79346 85.2781 6.53613Q85.5396 6.27881 85.5396 5.91357Q85.5396 5.53174 85.2781 5.27856Q85.0166 5.02539 84.6431 5.02539Q84.2778 5.02539 84.0205 5.27856Q83.7632 5.53174 83.7632 5.91357Q83.7632 6.29541 84.0205 6.54443ZM153.257 6.79346Q152.892 6.79346 152.635 6.54443Q152.377 6.29541 152.377 5.91357Q152.377 5.53174 152.635 5.27856Q152.892 5.02539 153.257 5.02539Q153.631 5.02539 153.892 5.27856Q154.154 5.53174 154.154 5.91357Q154.154 6.27881 153.892 6.53613Q153.631 6.79346 153.257 6.79346ZM189.756 6.79346Q189.391 6.79346 189.133 6.54443Q188.876 6.29541 188.876 5.91357Q188.876 5.53174 189.133 5.27856Q189.391 5.02539 189.756 5.02539Q190.129 5.02539 190.391 5.27856Q190.652 5.53174 190.652 5.91357Q190.652 6.27881 190.391 6.53613Q190.129 6.79346 189.756 6.79346ZM15.6719 5.54834L12.3101 17.4517L10.6748 17.4517L8.22607 8.75244Q8.06836 8.19629 8.03516 7.54053L8.00195 7.54053Q7.95215 8.15479 7.78613 8.73584L5.3208 17.4517L3.70215 17.4517L0.21582 5.54834L1.75146 5.54834L4.2832 14.6792Q4.44092 15.252 4.48242 15.8745L4.52393 15.8745Q4.56543 15.4346 4.78125 14.6792L7.4126 5.54834L8.74902 5.54834L11.2725 14.7456Q11.4053 15.2188 11.4717 15.8579L11.5049 15.8579Q11.5381 15.4263 11.729 14.7124L14.1611 5.54834L15.6719 5.54834ZM28.5796 17.6343Q29.3682 17.6343 29.8496 17.3687L29.8496 16.2065Q29.4761 16.4888 28.9614 16.4888Q28.2891 16.4888 27.9985 16.1235Q27.708 15.7583 27.708 14.9033L27.708 10.1138L29.8496 10.1138L29.8496 8.95166L27.708 8.95166L27.708 6.43652L26.3467 6.87646L26.3467 8.95166L24.8857 8.95166L24.8857 10.1138L26.3467 10.1138L26.3467 15.144Q26.3467 17.6343 28.5796 17.6343ZM100.356 17.6343Q101.145 17.6343 101.626 17.3687L101.626 16.2065Q101.253 16.4888 100.738 16.4888Q100.066 16.4888 99.7754 16.1235Q99.4849 15.7583 99.4849 14.9033L99.4849 10.1138L101.626 10.1138L101.626 8.95166L99.4849 8.95166L99.4849 6.43652L98.1235 6.87646L98.1235 8.95166L96.6626 8.95166L96.6626 10.1138L98.1235 10.1138L98.1235 15.144Q98.1235 17.6343 100.356 17.6343ZM149.472 17.6343Q150.261 17.6343 150.742 17.3687L150.742 16.2065Q150.369 16.4888 149.854 16.4888Q149.182 16.4888 148.891 16.1235Q148.601 15.7583 148.601 14.9033L148.601 10.1138L150.742 10.1138L150.742 8.95166L148.601 8.95166L148.601 6.43652L147.239 6.87646L147.239 8.95166L145.778 8.95166L145.778 10.1138L147.239 10.1138L147.239 15.144Q147.239 17.6343 149.472 17.6343ZM23.3418 17.4517L21.9805 17.4517L21.9805 16.1235L21.9473 16.1235Q21.0591 17.6509 19.3325 17.6509Q18.0625 17.6509 17.3445 16.9785Q16.6265 16.3062 16.6265 15.1938Q16.6265 12.8115 19.4321 12.4214L21.9805 12.0645Q21.9805 9.89795 20.229 9.89795Q18.6934 9.89795 17.4565 10.9438L17.4565 9.54932Q18.71 8.75244 20.3452 8.75244Q23.3418 8.75244 23.3418 11.9233L23.3418 17.4517ZM37.4614 17.0615Q36.4819 17.6509 35.1372 17.6509Q33.3193 17.6509 32.2029 16.468Q31.0864 15.2852 31.0864 13.4009Q31.0864 11.3008 32.29 10.0266Q33.4937 8.75244 35.5024 8.75244Q36.623 8.75244 37.478 9.16748L37.478 10.562Q36.5317 9.89795 35.4526 9.89795Q34.1494 9.89795 33.3152 10.8318Q32.481 11.7656 32.481 13.2847Q32.481 14.7788 33.2654 15.6421Q34.0498 16.5054 35.3696 16.5054Q36.4819 16.5054 37.4614 15.7666L37.4614 17.0615ZM57.3501 17.6509Q55.4658 17.6509 54.3411 16.4597Q53.2163 15.2686 53.2163 13.3013Q53.2163 11.1597 54.3867 9.95605Q55.5571 8.75244 57.5493 8.75244Q59.4502 8.75244 60.5168 9.92285Q61.5835 11.0933 61.5835 13.1685Q61.5835 15.2021 60.4338 16.4265Q59.2842 17.6509 57.3501 17.6509ZM95.1187 17.4517L93.7573 17.4517L93.7573 12.604Q93.7573 9.89795 91.7817 9.89795Q90.7607 9.89795 90.0925 10.6658Q89.4243 11.4336 89.4243 12.604L89.4243 17.4517L88.063 17.4517L88.063 8.95166L89.4243 8.95166L89.4243 10.3628L89.4575 10.3628Q90.4204 8.75244 92.2466 8.75244Q93.6411 8.75244 94.3799 9.65308Q95.1187 10.5537 95.1187 12.2554L95.1187 17.4517ZM109.898 16.4597Q111.023 17.6509 112.907 17.6509Q114.841 17.6509 115.991 16.4265Q117.141 15.2021 117.141 13.1685Q117.141 11.0933 116.074 9.92285Q115.007 8.75244 113.106 8.75244Q111.114 8.75244 109.944 9.95605Q108.773 11.1597 108.773 13.3013Q108.773 15.2686 109.898 16.4597ZM144.741 17.0615Q143.761 17.6509 142.417 17.6509Q140.599 17.6509 139.482 16.468Q138.366 15.2852 138.366 13.4009Q138.366 11.3008 139.569 10.0266Q140.773 8.75244 142.782 8.75244Q143.902 8.75244 144.757 9.16748L144.757 10.562Q143.811 9.89795 142.732 9.89795Q141.429 9.89795 140.594 10.8318Q139.76 11.7656 139.76 13.2847Q139.76 14.7788 140.545 15.6421Q141.329 16.5054 142.649 16.5054Q143.761 16.5054 144.741 15.7666L144.741 17.0615ZM157.221 16.4597Q158.346 17.6509 160.23 17.6509Q162.164 17.6509 163.314 16.4265Q164.463 15.2021 164.463 13.1685Q164.463 11.0933 163.397 9.92285Q162.33 8.75244 160.429 8.75244Q158.437 8.75244 157.267 9.95605Q156.096 11.1597 156.096 13.3013Q156.096 15.2686 157.221 16.4597ZM173.694 17.4517L172.333 17.4517L172.333 12.604Q172.333 9.89795 170.357 9.89795Q169.336 9.89795 168.668 10.6658Q168 11.4336 168 12.604L168 17.4517L166.638 17.4517L166.638 8.95166L168 8.95166L168 10.3628L168.033 10.3628Q168.996 8.75244 170.822 8.75244Q172.216 8.75244 172.955 9.65308Q173.694 10.5537 173.694 12.2554L173.694 17.4517ZM210.018 13.542L204.017 13.542Q204.05 14.9614 204.78 15.7334Q205.511 16.5054 206.789 16.5054Q208.225 16.5054 209.429 15.5591L209.429 16.8374Q208.308 17.6509 206.465 17.6509Q204.664 17.6509 203.635 16.4929Q202.605 15.335 202.605 13.2349Q202.605 11.251 203.73 10.0017Q204.855 8.75244 206.523 8.75244Q208.192 8.75244 209.105 9.83154Q210.018 10.9106 210.018 12.8281L210.018 13.542ZM212.62 16.4597Q213.745 17.6509 215.629 17.6509Q217.563 17.6509 218.713 16.4265Q219.863 15.2021 219.863 13.1685Q219.863 11.0933 218.796 9.92285Q217.729 8.75244 215.829 8.75244Q213.836 8.75244 212.666 9.95605Q211.496 11.1597 211.496 13.3013Q211.496 15.2686 212.62 16.4597ZM77.8115 10.3296Q77.4546 10.0557 76.7822 10.0557Q75.9106 10.0557 75.3254 10.8774Q74.7402 11.6992 74.7402 13.1187L74.7402 17.4517L73.3789 17.4517L73.3789 8.95166L74.7402 8.95166L74.7402 10.7031L74.7734 10.7031Q75.064 9.80664 75.6616 9.30444Q76.2593 8.80225 76.998 8.80225Q77.5293 8.80225 77.8115 8.91846L77.8115 10.3296ZM107.877 10.3296Q107.52 10.0557 106.848 10.0557Q105.976 10.0557 105.391 10.8774Q104.806 11.6992 104.806 13.1187L104.806 17.4517L103.444 17.4517L103.444 8.95166L104.806 8.95166L104.806 10.7031L104.839 10.7031Q105.129 9.80664 105.727 9.30444Q106.325 8.80225 107.063 8.80225Q107.595 8.80225 107.877 8.91846L107.877 10.3296ZM69.27 17.4517L70.6313 17.4517L70.6313 8.95166L69.27 8.95166L69.27 13.8491Q69.27 15.0361 68.6267 15.7708Q67.9834 16.5054 66.9873 16.5054Q64.9287 16.5054 64.9287 13.8159L64.9287 8.95166L63.5757 8.95166L63.5757 14.0317Q63.5757 17.6509 66.6138 17.6509Q68.3901 17.6509 69.2368 16.1069L69.27 16.1069L69.27 17.4517ZM83.9458 17.4517L85.3071 17.4517L85.3071 8.95166L83.9458 8.95166L83.9458 17.4517ZM134.838 17.4517L136.199 17.4517L136.199 8.95166L134.838 8.95166L134.838 13.8491Q134.838 15.0361 134.195 15.7708Q133.551 16.5054 132.555 16.5054Q130.497 16.5054 130.497 13.8159L130.497 8.95166L129.144 8.95166L129.144 14.0317Q129.144 17.6509 132.182 17.6509Q133.958 17.6509 134.805 16.1069L134.838 16.1069L134.838 17.4517ZM153.921 17.4517L152.56 17.4517L152.56 8.95166L153.921 8.95166L153.921 17.4517ZM184.211 17.4517L187.598 8.95166L186.162 8.95166L183.904 15.1606Q183.721 15.6753 183.638 16.3145L183.605 16.3145Q183.547 15.8081 183.306 15.1274L181.148 8.95166L179.654 8.95166L182.875 17.4517L184.211 17.4517ZM190.42 17.4517L189.059 17.4517L189.059 8.95166L190.42 8.95166L190.42 17.4517ZM57.4497 9.89795Q56.1382 9.89795 55.3745 10.7903Q54.6108 11.6826 54.6108 13.2515Q54.6108 14.7622 55.3828 15.6338Q56.1548 16.5054 57.4497 16.5054Q58.7695 16.5054 59.4792 15.6504Q60.189 14.7954 60.189 13.2183Q60.189 11.6245 59.4792 10.7612Q58.7695 9.89795 57.4497 9.89795ZM110.932 10.7903Q111.695 9.89795 113.007 9.89795Q114.327 9.89795 115.036 10.7612Q115.746 11.6245 115.746 13.2183Q115.746 14.7954 115.036 15.6504Q114.327 16.5054 113.007 16.5054Q111.712 16.5054 110.94 15.6338Q110.168 14.7622 110.168 13.2515Q110.168 11.6826 110.932 10.7903ZM125.209 13.6084L125.209 12.355Q125.209 11.3257 124.528 10.6118Q123.848 9.89795 122.802 9.89795Q121.557 9.89795 120.843 10.811Q120.129 11.7241 120.129 13.3345Q120.129 14.8037 120.814 15.6545Q121.499 16.5054 122.652 16.5054Q123.79 16.5054 124.499 15.6836Q125.209 14.8618 125.209 13.6084ZM158.254 10.7903Q159.018 9.89795 160.33 9.89795Q161.649 9.89795 162.359 10.7612Q163.069 11.6245 163.069 13.2183Q163.069 14.7954 162.359 15.6504Q161.649 16.5054 160.33 16.5054Q159.035 16.5054 158.263 15.6338Q157.491 14.7622 157.491 13.2515Q157.491 11.6826 158.254 10.7903ZM199.069 12.355L199.069 13.6084Q199.069 14.8618 198.36 15.6836Q197.65 16.5054 196.513 16.5054Q195.359 16.5054 194.674 15.6545Q193.989 14.8037 193.989 13.3345Q193.989 11.7241 194.703 10.811Q195.417 9.89795 196.662 9.89795Q197.708 9.89795 198.389 10.6118Q199.069 11.3257 199.069 12.355ZM208.624 12.3882Q208.615 11.2095 208.055 10.5537Q207.495 9.89795 206.499 9.89795Q205.536 9.89795 204.863 10.5869Q204.191 11.2759 204.033 12.3882L208.624 12.3882ZM213.654 10.7903Q214.417 9.89795 215.729 9.89795Q217.049 9.89795 217.759 10.7612Q218.468 11.6245 218.468 13.2183Q218.468 14.7954 217.759 15.6504Q217.049 16.5054 215.729 16.5054Q214.434 16.5054 213.662 15.6338Q212.89 14.7622 212.89 13.2515Q212.89 11.6826 213.654 10.7903ZM21.9805 13.1519L19.9302 13.4341Q18.9839 13.5669 18.5024 13.9031Q18.021 14.2393 18.021 15.0942Q18.021 15.7168 18.4651 16.1111Q18.9092 16.5054 19.6479 16.5054Q20.6606 16.5054 21.3206 15.7957Q21.9805 15.0859 21.9805 13.9985L21.9805 13.1519Z" />
        </g>
    </g>
</svg>